<?xml version="1.0" encoding="UTF-8" standalone="no"?>
<!DOCTYPE svg PUBLIC "-//W3C//DTD SVG 1.1//EN"
 "http://www.w3.org/Graphics/SVG/1.1/DTD/svg11.dtd">
<!-- Generated by graphviz version 2.26.3 (20100126.1600)
 -->
<!-- Title: controllers_diagram Pages: 1 -->
<svg width="2207pt" height="1807pt"
 viewBox="0.00 0.00 2207.00 1807.00" xmlns="http://www.w3.org/2000/svg" xmlns:xlink="http://www.w3.org/1999/xlink">
<g id="graph1" class="graph" transform="scale(1 1) rotate(0) translate(4 1803)">
<title>controllers_diagram</title>
<polygon fill="white" stroke="white" points="-4,5 -4,-1803 2204,-1803 2204,5 -4,5"/>
<!-- _diagram_info -->
<g id="node1" class="node"><title>_diagram_info</title>
<text text-anchor="start" x="1997" y="-1782.3" font-family="Times Roman,serif" font-size="13.00">Controllers diagram</text>
<text text-anchor="start" x="1997" y="-1765.3" font-family="Times Roman,serif" font-size="13.00">Date: Jun 19 2014 &#45; 15:36</text>
<text text-anchor="start" x="1997" y="-1748.3" font-family="Times Roman,serif" font-size="13.00">Migration version: 104</text>
<text text-anchor="start" x="1997" y="-1731.3" font-family="Times Roman,serif" font-size="13.00">Generated by RailRoady 1.1.1</text>
<text text-anchor="start" x="1997" y="-1714.3" font-family="Times Roman,serif" font-size="13.00">http://railroady.prestonlee.com</text>
</g>
<!-- AccountsController -->
<g id="node2" class="node"><title>AccountsController</title>
<ellipse fill="none" stroke="black" cx="843.042" cy="-345.186" rx="103.945" ry="18.3848"/>
<text text-anchor="middle" x="843.042" y="-341.586" font-family="Times Roman,serif" font-size="14.00">AccountsController</text>
</g>
<!-- XmlController -->
<g id="node3" class="node"><title>XmlController</title>
<ellipse fill="none" stroke="black" cx="1690.23" cy="-399.867" rx="79.196" ry="18.3848"/>
<text text-anchor="middle" x="1690.23" y="-396.267" font-family="Times Roman,serif" font-size="14.00">XmlController</text>
</g>
<!-- GroupingController -->
<g id="node4" class="node"><title>GroupingController</title>
<ellipse fill="none" stroke="black" cx="1084.39" cy="-24.6914" rx="104.86" ry="18.3848"/>
<text text-anchor="middle" x="1084.39" y="-21.0914" font-family="Times Roman,serif" font-size="14.00">GroupingController</text>
</g>
<!-- TagsController -->
<g id="node14" class="node"><title>TagsController</title>
<ellipse fill="none" stroke="black" cx="1535.77" cy="-19.5" rx="80.8184" ry="18.3848"/>
<text text-anchor="middle" x="1535.77" y="-15.9" font-family="Times Roman,serif" font-size="14.00">TagsController</text>
</g>
<!-- GroupingController&#45;&gt;TagsController -->
<g id="edge24" class="edge"><title>GroupingController&#45;&gt;TagsController</title>
<path fill="none" stroke="black" d="M1189.36,-23.4841C1270.24,-22.5539 1380.42,-21.2867 1454.62,-20.4333"/>
</g>
<!-- CategoriesController -->
<g id="node35" class="node"><title>CategoriesController</title>
<ellipse fill="none" stroke="black" cx="199.148" cy="-46.3786" rx="111.93" ry="18.3848"/>
<text text-anchor="middle" x="199.148" y="-42.7786" font-family="Times Roman,serif" font-size="14.00">CategoriesController</text>
</g>
<!-- GroupingController&#45;&gt;CategoriesController -->
<g id="edge66" class="edge"><title>GroupingController&#45;&gt;CategoriesController</title>
<path fill="none" stroke="black" d="M981.067,-21.2667C894.03,-18.885 766.23,-16.5653 654.735,-19.1748 532.548,-22.0346 392.203,-31.3246 299.943,-38.2576"/>
</g>
<!-- CommentsController -->
<g id="node5" class="node"><title>CommentsController</title>
<ellipse fill="none" stroke="black" cx="2043.69" cy="-1471.96" rx="111.93" ry="18.3848"/>
<text text-anchor="middle" x="2043.69" y="-1468.36" font-family="Times Roman,serif" font-size="14.00">CommentsController</text>
</g>
<!-- TextfilterController -->
<g id="node6" class="node"><title>TextfilterController</title>
<ellipse fill="none" stroke="black" cx="1700.64" cy="-781.993" rx="103.238" ry="18.3848"/>
<text text-anchor="middle" x="1700.64" y="-778.393" font-family="Times Roman,serif" font-size="14.00">TextfilterController</text>
</g>
<!-- ApplicationController -->
<g id="node7" class="node"><title>ApplicationController</title>
<ellipse fill="none" stroke="black" cx="1103.66" cy="-673.988" rx="113.844" ry="18.3848"/>
<text text-anchor="middle" x="1103.66" y="-670.388" font-family="Times Roman,serif" font-size="14.00">ApplicationController</text>
</g>
<!-- ApplicationController&#45;&gt;AccountsController -->
<g id="edge2" class="edge"><title>ApplicationController&#45;&gt;AccountsController</title>
<path fill="none" stroke="black" d="M1088.9,-655.368C1043.03,-597.495 903.288,-421.195 857.638,-363.602"/>
</g>
<!-- ApplicationController&#45;&gt;XmlController -->
<g id="edge4" class="edge"><title>ApplicationController&#45;&gt;XmlController</title>
<path fill="none" stroke="black" d="M1141.24,-656.423C1247.82,-606.616 1550.98,-464.94 1654.82,-416.411"/>
</g>
<!-- ApplicationController&#45;&gt;TextfilterController -->
<g id="edge10" class="edge"><title>ApplicationController&#45;&gt;TextfilterController</title>
<path fill="none" stroke="black" d="M1179.87,-687.776C1295.55,-708.704 1513.97,-748.221 1627.68,-768.793"/>
</g>
<!-- ContentController -->
<g id="node10" class="node"><title>ContentController</title>
<ellipse fill="none" stroke="black" cx="1106.49" cy="-397.646" rx="99.201" ry="18.3848"/>
<text text-anchor="middle" x="1106.49" y="-394.046" font-family="Times Roman,serif" font-size="14.00">ContentController</text>
</g>
<!-- ApplicationController&#45;&gt;ContentController -->
<g id="edge16" class="edge"><title>ApplicationController&#45;&gt;ContentController</title>
<path fill="none" stroke="black" d="M1103.85,-655.427C1104.37,-605.206 1105.78,-467.04 1106.3,-416.49"/>
</g>
<!-- SetupController -->
<g id="node11" class="node"><title>SetupController</title>
<ellipse fill="none" stroke="black" cx="1395.06" cy="-620.777" rx="89.0955" ry="18.3848"/>
<text text-anchor="middle" x="1395.06" y="-617.177" font-family="Times Roman,serif" font-size="14.00">SetupController</text>
</g>
<!-- ApplicationController&#45;&gt;SetupController -->
<g id="edge18" class="edge"><title>ApplicationController&#45;&gt;SetupController</title>
<path fill="none" stroke="black" d="M1179.46,-660.146C1225.5,-651.74 1283.73,-641.105 1328.07,-633.008"/>
</g>
<!-- FeedbackController -->
<g id="node16" class="node"><title>FeedbackController</title>
<ellipse fill="none" stroke="black" cx="2040.13" cy="-1006.29" rx="104.86" ry="18.3848"/>
<text text-anchor="middle" x="2040.13" y="-1002.69" font-family="Times Roman,serif" font-size="14.00">FeedbackController</text>
</g>
<!-- ApplicationController&#45;&gt;FeedbackController -->
<g id="edge28" class="edge"><title>ApplicationController&#45;&gt;FeedbackController</title>
<path fill="none" stroke="black" d="M1151.39,-690.923C1312.31,-748.026 1833.81,-933.076 1993.33,-989.681"/>
</g>
<!-- Admin::BaseController -->
<g id="node26" class="node"><title>Admin::BaseController</title>
<ellipse fill="none" stroke="black" cx="808.013" cy="-949.283" rx="120.208" ry="18.3848"/>
<text text-anchor="middle" x="808.013" y="-945.683" font-family="Times Roman,serif" font-size="14.00">Admin::BaseController</text>
</g>
<!-- ApplicationController&#45;&gt;Admin::BaseController -->
<g id="edge48" class="edge"><title>ApplicationController&#45;&gt;Admin::BaseController</title>
<path fill="none" stroke="black" d="M1083.8,-692.478C1029.94,-742.629 881.541,-880.816 827.784,-930.873"/>
</g>
<!-- AuthorsController -->
<g id="node8" class="node"><title>AuthorsController</title>
<ellipse fill="none" stroke="black" cx="654.073" cy="-39.2744" rx="98.9949" ry="18.3848"/>
<text text-anchor="middle" x="654.073" y="-35.6744" font-family="Times Roman,serif" font-size="14.00">AuthorsController</text>
</g>
<!-- ArticlesController -->
<g id="node9" class="node"><title>ArticlesController</title>
<ellipse fill="none" stroke="black" cx="2006.18" cy="-81.4249" rx="96.1665" ry="18.3848"/>
<text text-anchor="middle" x="2006.18" y="-77.8249" font-family="Times Roman,serif" font-size="14.00">ArticlesController</text>
</g>
<!-- ContentController&#45;&gt;GroupingController -->
<g id="edge6" class="edge"><title>ContentController&#45;&gt;GroupingController</title>
<path fill="none" stroke="black" d="M1105.38,-378.896C1101.6,-315.084 1089.25,-106.792 1085.49,-43.2581"/>
</g>
<!-- ContentController&#45;&gt;AuthorsController -->
<g id="edge12" class="edge"><title>ContentController&#45;&gt;AuthorsController</title>
<path fill="none" stroke="black" d="M1083.75,-379.629C1006.43,-318.383 754.251,-118.627 676.864,-57.3275"/>
</g>
<!-- ContentController&#45;&gt;ArticlesController -->
<g id="edge14" class="edge"><title>ContentController&#45;&gt;ArticlesController</title>
<path fill="none" stroke="black" d="M1176.78,-384.611C1242.9,-371.537 1344.24,-349.396 1429.82,-321.714 1640.25,-253.652 1881.3,-141.478 1970.54,-98.7153"/>
</g>
<!-- BackendController -->
<g id="node12" class="node"><title>BackendController</title>
<ellipse fill="none" stroke="black" cx="1357.33" cy="-307.489" rx="101.116" ry="18.3848"/>
<text text-anchor="middle" x="1357.33" y="-303.889" font-family="Times Roman,serif" font-size="14.00">BackendController</text>
</g>
<!-- ContentController&#45;&gt;BackendController -->
<g id="edge20" class="edge"><title>ContentController&#45;&gt;BackendController</title>
<path fill="none" stroke="black" d="M1152.21,-381.215C1197.29,-365.013 1265.82,-340.381 1311.08,-324.113"/>
</g>
<!-- ThemeController -->
<g id="node13" class="node"><title>ThemeController</title>
<ellipse fill="none" stroke="black" cx="143.666" cy="-416.407" rx="92.839" ry="18.3848"/>
<text text-anchor="middle" x="143.666" y="-412.807" font-family="Times Roman,serif" font-size="14.00">ThemeController</text>
</g>
<!-- ContentController&#45;&gt;ThemeController -->
<g id="edge22" class="edge"><title>ContentController&#45;&gt;ThemeController</title>
<path fill="none" stroke="black" d="M1007.98,-399.566C821.299,-403.203 418.447,-411.053 236.363,-414.601"/>
</g>
<!-- TrackbacksController -->
<g id="node15" class="node"><title>TrackbacksController</title>
<ellipse fill="none" stroke="black" cx="2052.29" cy="-554.307" rx="113.137" ry="18.3848"/>
<text text-anchor="middle" x="2052.29" y="-550.707" font-family="Times Roman,serif" font-size="14.00">TrackbacksController</text>
</g>
<!-- FeedbackController&#45;&gt;CommentsController -->
<g id="edge8" class="edge"><title>FeedbackController&#45;&gt;CommentsController</title>
<path fill="none" stroke="black" d="M2040.27,-1024.83C2040.84,-1099.6 2042.97,-1378.5 2043.55,-1453.36"/>
</g>
<!-- FeedbackController&#45;&gt;TrackbacksController -->
<g id="edge26" class="edge"><title>FeedbackController&#45;&gt;TrackbacksController</title>
<path fill="none" stroke="black" d="M2040.62,-987.726C2042.59,-914.636 2049.79,-647.079 2051.78,-573.274"/>
</g>
<!-- Admin::ThemesController -->
<g id="node17" class="node"><title>Admin::ThemesController</title>
<ellipse fill="none" stroke="black" cx="1089.6" cy="-933.667" rx="135.057" ry="18.3848"/>
<text text-anchor="middle" x="1089.6" y="-930.067" font-family="Times Roman,serif" font-size="14.00">Admin::ThemesController</text>
</g>
<!-- Admin::SeoController -->
<g id="node18" class="node"><title>Admin::SeoController</title>
<ellipse fill="none" stroke="black" cx="1383.7" cy="-911.014" rx="114.759" ry="18.3848"/>
<text text-anchor="middle" x="1383.7" y="-907.414" font-family="Times Roman,serif" font-size="14.00">Admin::SeoController</text>
</g>
<!-- Admin::DashboardController -->
<g id="node19" class="node"><title>Admin::DashboardController</title>
<ellipse fill="none" stroke="black" cx="820.437" cy="-1531.35" rx="149.2" ry="18.3848"/>
<text text-anchor="middle" x="820.437" y="-1527.75" font-family="Times Roman,serif" font-size="14.00">Admin::DashboardController</text>
</g>
<!-- Admin::PostTypesController -->
<g id="node20" class="node"><title>Admin::PostTypesController</title>
<ellipse fill="none" stroke="black" cx="146" cy="-1507.45" rx="144.957" ry="18.3848"/>
<text text-anchor="middle" x="146" y="-1503.85" font-family="Times Roman,serif" font-size="14.00">Admin::PostTypesController</text>
</g>
<!-- Admin::UsersController -->
<g id="node21" class="node"><title>Admin::UsersController</title>
<ellipse fill="none" stroke="black" cx="513.353" cy="-1534.21" rx="123.951" ry="18.3848"/>
<text text-anchor="middle" x="513.353" y="-1530.61" font-family="Times Roman,serif" font-size="14.00">Admin::UsersController</text>
</g>
<!-- Admin::RedirectsController -->
<g id="node22" class="node"><title>Admin::RedirectsController</title>
<ellipse fill="none" stroke="black" cx="508.537" cy="-819" rx="140.922" ry="18.3848"/>
<text text-anchor="middle" x="508.537" y="-815.4" font-family="Times Roman,serif" font-size="14.00">Admin::RedirectsController</text>
</g>
<!-- Admin::SidebarController -->
<g id="node23" class="node"><title>Admin::SidebarController</title>
<ellipse fill="none" stroke="black" cx="168.631" cy="-1112.56" rx="133.143" ry="18.3848"/>
<text text-anchor="middle" x="168.631" y="-1108.96" font-family="Times Roman,serif" font-size="14.00">Admin::SidebarController</text>
</g>
<!-- Admin::ResourcesController -->
<g id="node24" class="node"><title>Admin::ResourcesController</title>
<ellipse fill="none" stroke="black" cx="1378.19" cy="-1523.82" rx="145.163" ry="18.3848"/>
<text text-anchor="middle" x="1378.19" y="-1520.22" font-family="Times Roman,serif" font-size="14.00">Admin::ResourcesController</text>
</g>
<!-- Admin::ContentController -->
<g id="node25" class="node"><title>Admin::ContentController</title>
<ellipse fill="none" stroke="black" cx="1101.86" cy="-1545.13" rx="137.179" ry="18.3848"/>
<text text-anchor="middle" x="1101.86" y="-1541.53" font-family="Times Roman,serif" font-size="14.00">Admin::ContentController</text>
</g>
<!-- Admin::BaseController&#45;&gt;Admin::ThemesController -->
<g id="edge30" class="edge"><title>Admin::BaseController&#45;&gt;Admin::ThemesController</title>
<path fill="none" stroke="black" d="M921.33,-942.999C935.39,-942.219 949.83,-941.419 964.06,-940.629"/>
</g>
<!-- Admin::BaseController&#45;&gt;Admin::SeoController -->
<g id="edge32" class="edge"><title>Admin::BaseController&#45;&gt;Admin::SeoController</title>
<path fill="none" stroke="black" d="M885.059,-935.089C918.389,-929.41 957.908,-923.291 993.791,-919.341 1086.33,-909.153 1191.95,-907.507 1269.9,-908.166"/>
</g>
<!-- Admin::BaseController&#45;&gt;Admin::DashboardController -->
<g id="edge34" class="edge"><title>Admin::BaseController&#45;&gt;Admin::DashboardController</title>
<path fill="none" stroke="black" d="M807.322,-967.965C805.811,-1011.34 802.478,-1122.25 804.189,-1214.95 806.281,-1328.23 815.527,-1464.07 819.059,-1512.82"/>
</g>
<!-- Admin::BaseController&#45;&gt;Admin::PostTypesController -->
<g id="edge36" class="edge"><title>Admin::BaseController&#45;&gt;Admin::PostTypesController</title>
<path fill="none" stroke="black" d="M770.606,-966.981C700.112,-1001.36 544.631,-1082.15 432.682,-1176.57 310.962,-1279.23 196.469,-1435.46 158.892,-1488.83"/>
</g>
<!-- Admin::BaseController&#45;&gt;Admin::UsersController -->
<g id="edge38" class="edge"><title>Admin::BaseController&#45;&gt;Admin::UsersController</title>
<path fill="none" stroke="black" d="M800.71,-967.828C785.152,-1006.95 747.108,-1100.6 709.881,-1176.69 644.983,-1309.35 555.434,-1463.08 524.437,-1515.56"/>
</g>
<!-- Admin::BaseController&#45;&gt;Admin::RedirectsController -->
<g id="edge40" class="edge"><title>Admin::BaseController&#45;&gt;Admin::RedirectsController</title>
<path fill="none" stroke="black" d="M767.624,-931.713C710.627,-906.917 607.151,-861.901 549.724,-836.918"/>
</g>
<!-- Admin::BaseController&#45;&gt;Admin::SidebarController -->
<g id="edge42" class="edge"><title>Admin::BaseController&#45;&gt;Admin::SidebarController</title>
<path fill="none" stroke="black" d="M745.834,-965.162C624.074,-996.256 355.38,-1064.87 232.373,-1096.28"/>
</g>
<!-- Admin::BaseController&#45;&gt;Admin::ResourcesController -->
<g id="edge44" class="edge"><title>Admin::BaseController&#45;&gt;Admin::ResourcesController</title>
<path fill="none" stroke="black" d="M828.383,-967.535C875.58,-1010.01 995.7,-1119.2 1091.38,-1215.34 1197.64,-1322.13 1318.6,-1456.8 1361.8,-1505.34"/>
</g>
<!-- Admin::BaseController&#45;&gt;Admin::ContentController -->
<g id="edge46" class="edge"><title>Admin::BaseController&#45;&gt;Admin::ContentController</title>
<path fill="none" stroke="black" d="M803.275,-967.786C792.842,-1012.18 771.316,-1127.52 804.189,-1214.95 859.057,-1360.88 1012.67,-1482.09 1075.04,-1526.73"/>
</g>
<!-- Admin::CacheController -->
<g id="node27" class="node"><title>Admin::CacheController</title>
<ellipse fill="none" stroke="black" cx="812.746" cy="-662.467" rx="126.072" ry="18.3848"/>
<text text-anchor="middle" x="812.746" y="-658.867" font-family="Times Roman,serif" font-size="14.00">Admin::CacheController</text>
</g>
<!-- Admin::BaseController&#45;&gt;Admin::CacheController -->
<g id="edge50" class="edge"><title>Admin::BaseController&#45;&gt;Admin::CacheController</title>
<path fill="none" stroke="black" d="M808.323,-930.464C809.183,-878.37 811.587,-732.71 812.441,-680.982"/>
</g>
<!-- Admin::TextfiltersController -->
<g id="node28" class="node"><title>Admin::TextfiltersController</title>
<ellipse fill="none" stroke="black" cx="1682.28" cy="-1537.55" rx="144.957" ry="18.3848"/>
<text text-anchor="middle" x="1682.28" y="-1533.95" font-family="Times Roman,serif" font-size="14.00">Admin::TextfiltersController</text>
</g>
<!-- Admin::BaseController&#45;&gt;Admin::TextfiltersController -->
<g id="edge52" class="edge"><title>Admin::BaseController&#45;&gt;Admin::TextfiltersController</title>
<path fill="none" stroke="black" d="M829.819,-967.64C880.59,-1010.07 1011.22,-1117.44 1127.33,-1197.79 1319.39,-1330.69 1563.19,-1470.53 1649.89,-1519.42"/>
</g>
<!-- Admin::SettingsController -->
<g id="node29" class="node"><title>Admin::SettingsController</title>
<ellipse fill="none" stroke="black" cx="571.282" cy="-1176.63" rx="137.179" ry="18.3848"/>
<text text-anchor="middle" x="571.282" y="-1173.03" font-family="Times Roman,serif" font-size="14.00">Admin::SettingsController</text>
</g>
<!-- Admin::BaseController&#45;&gt;Admin::SettingsController -->
<g id="edge54" class="edge"><title>Admin::BaseController&#45;&gt;Admin::SettingsController</title>
<path fill="none" stroke="black" d="M788.64,-967.888C744.138,-1010.63 635.03,-1115.41 590.59,-1158.09"/>
</g>
<!-- Admin::PagesController -->
<g id="node30" class="node"><title>Admin::PagesController</title>
<ellipse fill="none" stroke="black" cx="519.6" cy="-440.149" rx="125.158" ry="18.3848"/>
<text text-anchor="middle" x="519.6" y="-436.549" font-family="Times Roman,serif" font-size="14.00">Admin::PagesController</text>
</g>
<!-- Admin::BaseController&#45;&gt;Admin::PagesController -->
<g id="edge56" class="edge"><title>Admin::BaseController&#45;&gt;Admin::PagesController</title>
<path fill="none" stroke="black" d="M797.406,-930.559C752.131,-850.635 575.317,-538.506 530.151,-458.775"/>
</g>
<!-- Admin::TagsController -->
<g id="node31" class="node"><title>Admin::TagsController</title>
<ellipse fill="none" stroke="black" cx="1650.36" cy="-1156.07" rx="118.087" ry="18.3848"/>
<text text-anchor="middle" x="1650.36" y="-1152.47" font-family="Times Roman,serif" font-size="14.00">Admin::TagsController</text>
</g>
<!-- Admin::BaseController&#45;&gt;Admin::TagsController -->
<g id="edge58" class="edge"><title>Admin::BaseController&#45;&gt;Admin::TagsController</title>
<path fill="none" stroke="black" d="M872.018,-964.996C1028.76,-1003.47 1430.4,-1102.08 1586.75,-1140.46"/>
</g>
<!-- Admin::FeedbackController -->
<g id="node32" class="node"><title>Admin::FeedbackController</title>
<ellipse fill="none" stroke="black" cx="947.783" cy="-1215.15" rx="142.128" ry="18.3848"/>
<text text-anchor="middle" x="947.783" y="-1211.55" font-family="Times Roman,serif" font-size="14.00">Admin::FeedbackController</text>
</g>
<!-- Admin::BaseController&#45;&gt;Admin::FeedbackController -->
<g id="edge60" class="edge"><title>Admin::BaseController&#45;&gt;Admin::FeedbackController</title>
<path fill="none" stroke="black" d="M817.841,-967.978C843.504,-1016.79 912.314,-1147.68 937.965,-1196.47"/>
</g>
<!-- Admin::CategoriesController -->
<g id="node33" class="node"><title>Admin::CategoriesController</title>
<ellipse fill="none" stroke="black" cx="1277.92" cy="-1197.86" rx="149.2" ry="18.3848"/>
<text text-anchor="middle" x="1277.92" y="-1194.26" font-family="Times Roman,serif" font-size="14.00">Admin::CategoriesController</text>
</g>
<!-- Admin::BaseController&#45;&gt;Admin::CategoriesController -->
<g id="edge62" class="edge"><title>Admin::BaseController&#45;&gt;Admin::CategoriesController</title>
<path fill="none" stroke="black" d="M841.808,-967.161C928.3,-1012.91 1156.96,-1133.87 1243.8,-1179.81"/>
</g>
<!-- Admin::ProfilesController -->
<g id="node34" class="node"><title>Admin::ProfilesController</title>
<ellipse fill="none" stroke="black" cx="146.767" cy="-762.228" rx="132.229" ry="18.3848"/>
<text text-anchor="middle" x="146.767" y="-758.628" font-family="Times Roman,serif" font-size="14.00">Admin::ProfilesController</text>
</g>
<!-- Admin::BaseController&#45;&gt;Admin::ProfilesController -->
<g id="edge64" class="edge"><title>Admin::BaseController&#45;&gt;Admin::ProfilesController</title>
<path fill="none" stroke="black" d="M750.488,-933.011C625.746,-897.723 331.476,-814.479 205.578,-778.864"/>
</g>
</g>
</svg>
