<?xml version="1.0" encoding="UTF-8" standalone="no"?>
<!DOCTYPE svg PUBLIC "-//W3C//DTD SVG 1.1//EN"
 "http://www.w3.org/Graphics/SVG/1.1/DTD/svg11.dtd">
<!-- Generated by graphviz version 2.26.3 (20100126.1600)
 -->
<!-- Title: models_diagram Pages: 1 -->
<svg width="3017pt" height="514pt"
 viewBox="0.00 0.00 3017.00 514.00" xmlns="http://www.w3.org/2000/svg" xmlns:xlink="http://www.w3.org/1999/xlink">
<g id="graph1" class="graph" transform="scale(1 1) rotate(0) translate(4 510)">
<title>models_diagram</title>
<polygon fill="white" stroke="white" points="-4,5 -4,-510 3014,-510 3014,5 -4,5"/>
<!-- _diagram_info -->
<g id="node1" class="node"><title>_diagram_info</title>
<text text-anchor="start" x="7.5" y="-489.8" font-family="Times Roman,serif" font-size="13.00">Models diagram</text>
<text text-anchor="start" x="7.5" y="-472.8" font-family="Times Roman,serif" font-size="13.00">Date: Jun 19 2014 &#45; 15:35</text>
<text text-anchor="start" x="7.5" y="-455.8" font-family="Times Roman,serif" font-size="13.00">Migration version: 104</text>
<text text-anchor="start" x="7.5" y="-438.8" font-family="Times Roman,serif" font-size="13.00">Generated by RailRoady 1.1.1</text>
<text text-anchor="start" x="7.5" y="-421.8" font-family="Times Roman,serif" font-size="13.00">http://railroady.prestonlee.com</text>
</g>
<!-- WebNotifier -->
<g id="node2" class="node"><title>WebNotifier</title>
<polygon fill="none" stroke="black" points="340,-373 242,-373 242,-337 340,-337 340,-373"/>
<text text-anchor="middle" x="291" y="-351.4" font-family="Times Roman,serif" font-size="14.00">WebNotifier</text>
</g>
<!-- Category -->
<g id="node3" class="node"><title>Category</title>
<ellipse fill="none" stroke="black" cx="631" cy="-355" rx="56.0679" ry="18.3848"/>
<text text-anchor="middle" x="631" y="-351.4" font-family="Times Roman,serif" font-size="14.00">Category</text>
</g>
<!-- Category&#45;&gt;Category -->
<g id="edge4" class="edge"><title>Category&#45;&gt;Category</title>
<path fill="none" stroke="#07e477" d="M690.921,-361.381C699.351,-360.341 705,-358.215 705,-355 705,-352.078 700.332,-350.054 693.149,-348.93"/>
<ellipse fill="none" stroke="#07e477" cx="686.856" cy="-361.7" rx="4" ry="4"/>
<polygon fill="#07e477" stroke="#07e477" points="692.827,-348.9 683.28,-343.505 687.848,-348.443 682.869,-347.986 682.869,-347.986 682.869,-347.986 687.848,-348.443 682.457,-352.467 692.827,-348.9 692.827,-348.9"/>
<text text-anchor="middle" x="732.5" y="-351.4" font-family="Times Roman,serif" font-size="14.00">children</text>
</g>
<!-- Categorization -->
<g id="node9" class="node"><title>Categorization</title>
<ellipse fill="none" stroke="black" cx="453" cy="-95" rx="84.1457" ry="18.3848"/>
<text text-anchor="middle" x="453" y="-91.4" font-family="Times Roman,serif" font-size="14.00">Categorization</text>
</g>
<!-- Category&#45;&gt;Categorization -->
<g id="edge6" class="edge"><title>Category&#45;&gt;Categorization</title>
<path fill="none" stroke="#a9b34d" d="M620.627,-329.172C602.058,-285.148 559.804,-194.302 504,-132 499.737,-127.241 494.765,-122.727 489.629,-118.595"/>
<ellipse fill="none" stroke="#a9b34d" cx="622.175" cy="-332.887" rx="4.00002" ry="4.00002"/>
<polygon fill="#a9b34d" stroke="#a9b34d" points="489.471,-118.476 484.219,-108.849 485.486,-115.455 481.501,-112.435 481.501,-112.435 481.501,-112.435 485.486,-115.455 478.783,-116.022 489.471,-118.476 489.471,-118.476"/>
</g>
<!-- Article -->
<g id="node15" class="node"><title>Article</title>
<ellipse fill="none" stroke="black" cx="940" cy="-187" rx="43.1335" ry="18.3848"/>
<text text-anchor="middle" x="940" y="-183.4" font-family="Times Roman,serif" font-size="14.00">Article</text>
</g>
<!-- Category&#45;&gt;Article -->
<g id="edge8" class="edge"><title>Category&#45;&gt;Article</title>
<path fill="none" stroke="#f55152" d="M669.24,-334.209C729.439,-301.48 845.48,-238.39 904.157,-206.487"/>
<polygon fill="#f55152" stroke="#f55152" points="669.134,-334.267 658.199,-335.09 664.741,-336.655 660.349,-339.044 660.349,-339.044 660.349,-339.044 664.741,-336.655 662.498,-342.997 669.134,-334.267 669.134,-334.267"/>
<polygon fill="#f55152" stroke="#f55152" points="904.279,-206.421 915.214,-205.598 908.672,-204.033 913.065,-201.644 913.065,-201.644 913.065,-201.644 908.672,-204.033 910.915,-197.691 904.279,-206.421 904.279,-206.421"/>
</g>
<!-- Sidebar -->
<g id="node4" class="node"><title>Sidebar</title>
<ellipse fill="none" stroke="black" cx="923" cy="-355" rx="48.0833" ry="18.3848"/>
<text text-anchor="middle" x="923" y="-351.4" font-family="Times Roman,serif" font-size="14.00">Sidebar</text>
</g>
<!-- NotificationMailer -->
<g id="node5" class="node"><title>NotificationMailer</title>
<polygon fill="none" stroke="black" points="2063,-373 1927,-373 1927,-337 2063,-337 2063,-373"/>
<text text-anchor="middle" x="1995" y="-351.4" font-family="Times Roman,serif" font-size="14.00">NotificationMailer</text>
</g>
<!-- Notification -->
<g id="node6" class="node"><title>Notification</title>
<ellipse fill="none" stroke="black" cx="1156" cy="-187" rx="67.1751" ry="18.3848"/>
<text text-anchor="middle" x="1156" y="-183.4" font-family="Times Roman,serif" font-size="14.00">Notification</text>
</g>
<!-- Resource -->
<g id="node7" class="node"><title>Resource</title>
<ellipse fill="none" stroke="black" cx="685" cy="-95" rx="55.8614" ry="18.3848"/>
<text text-anchor="middle" x="685" y="-91.4" font-family="Times Roman,serif" font-size="14.00">Resource</text>
</g>
<!-- TextFilter -->
<g id="node8" class="node"><title>TextFilter</title>
<ellipse fill="none" stroke="black" cx="1435" cy="-355" rx="56.0679" ry="18.3848"/>
<text text-anchor="middle" x="1435" y="-351.4" font-family="Times Roman,serif" font-size="14.00">TextFilter</text>
</g>
<!-- Comment -->
<g id="node10" class="node"><title>Comment</title>
<ellipse fill="none" stroke="black" cx="1210" cy="-19" rx="58.1882" ry="18.3848"/>
<text text-anchor="middle" x="1210" y="-15.4" font-family="Times Roman,serif" font-size="14.00">Comment</text>
</g>
<!-- Profile -->
<g id="node11" class="node"><title>Profile</title>
<ellipse fill="none" stroke="black" cx="1671" cy="-263" rx="41.2167" ry="18.3848"/>
<text text-anchor="middle" x="1671" y="-259.4" font-family="Times Roman,serif" font-size="14.00">Profile</text>
</g>
<!-- Feedback -->
<g id="node12" class="node"><title>Feedback</title>
<ellipse fill="none" stroke="black" cx="1118" cy="-95" rx="56.0679" ry="18.3848"/>
<text text-anchor="middle" x="1118" y="-91.4" font-family="Times Roman,serif" font-size="14.00">Feedback</text>
</g>
<!-- Feedback&#45;&gt;Comment -->
<g id="edge24" class="edge"><title>Feedback&#45;&gt;Comment</title>
<path fill="none" stroke="black" d="M1138.88,-77.7544C1153.83,-65.4042 1173.88,-48.8347 1188.89,-36.4404"/>
</g>
<!-- Trackback -->
<g id="node28" class="node"><title>Trackback</title>
<ellipse fill="none" stroke="black" cx="1034" cy="-19" rx="58.8978" ry="18.3848"/>
<text text-anchor="middle" x="1034" y="-15.4" font-family="Times Roman,serif" font-size="14.00">Trackback</text>
</g>
<!-- Feedback&#45;&gt;Trackback -->
<g id="edge94" class="edge"><title>Feedback&#45;&gt;Trackback</title>
<path fill="none" stroke="black" d="M1098.52,-77.373C1084.95,-65.0951 1066.92,-48.7884 1053.38,-36.5314"/>
</g>
<!-- Article::States -->
<g id="node13" class="node"><title>Article::States</title>
<polygon fill="none" stroke="black" stroke-dasharray="1,5" points="2229,-477 2115,-477 2115,-441 2229,-441 2229,-477"/>
<text text-anchor="middle" x="2172" y="-455.4" font-family="Times Roman,serif" font-size="14.00">Article::States</text>
</g>
<!-- Right -->
<g id="node14" class="node"><title>Right</title>
<ellipse fill="none" stroke="black" cx="1584" cy="-355" rx="36.977" ry="18.3848"/>
<text text-anchor="middle" x="1584" y="-351.4" font-family="Times Roman,serif" font-size="14.00">Right</text>
</g>
<!-- Right&#45;&gt;Profile -->
<g id="edge30" class="edge"><title>Right&#45;&gt;Profile</title>
<path fill="none" stroke="#4d9930" d="M1606.55,-330.43C1615.37,-320.882 1625.61,-309.884 1635,-300 1638.86,-295.939 1642.98,-291.655 1647,-287.5"/>
<polygon fill="#4d9930" stroke="#4d9930" points="1606.3,-330.701 1596.21,-335.002 1602.91,-334.376 1599.52,-338.052 1599.52,-338.052 1599.52,-338.052 1602.91,-334.376 1602.83,-341.103 1606.3,-330.701 1606.3,-330.701"/>
<polygon fill="#4d9930" stroke="#4d9930" points="1647.09,-287.405 1657.29,-283.371 1650.58,-283.82 1654.06,-280.234 1654.06,-280.234 1654.06,-280.234 1650.58,-283.82 1650.84,-277.098 1647.09,-287.405 1647.09,-287.405"/>
</g>
<!-- Article&#45;&gt;Resource -->
<g id="edge42" class="edge"><title>Article&#45;&gt;Resource</title>
<path fill="none" stroke="#6745d9" d="M899.036,-172.535C879.873,-165.74 856.75,-157.502 836,-150 814.182,-142.112 808.794,-139.956 787,-132 769.249,-125.52 749.748,-118.438 732.594,-112.219"/>
<ellipse fill="none" stroke="#6745d9" cx="902.944" cy="-173.92" rx="4.00001" ry="4.00001"/>
<polygon fill="#6745d9" stroke="#6745d9" points="732.198,-112.076 724.329,-104.438 727.497,-110.372 722.796,-108.669 722.796,-108.669 722.796,-108.669 727.497,-110.372 721.263,-112.9 732.198,-112.076 732.198,-112.076"/>
</g>
<!-- Article&#45;&gt;Categorization -->
<g id="edge44" class="edge"><title>Article&#45;&gt;Categorization</title>
<path fill="none" stroke="#50efb9" d="M890.096,-181.141C838.34,-174.748 755.178,-163.589 684,-150 627.034,-139.125 562.92,-123.593 516.716,-111.807"/>
<ellipse fill="none" stroke="#50efb9" cx="894.156" cy="-181.638" rx="4.00001" ry="4.00001"/>
<polygon fill="#50efb9" stroke="#50efb9" points="516.532,-111.76 507.962,-104.917 511.688,-110.518 506.845,-109.276 506.845,-109.276 506.845,-109.276 511.688,-110.518 505.727,-113.635 516.532,-111.76 516.532,-111.76"/>
</g>
<!-- Article&#45;&gt;Comment -->
<g id="edge46" class="edge"><title>Article&#45;&gt;Comment</title>
<path fill="none" stroke="#dbb944" d="M989.123,-180.204C1015.97,-176.524 1049.8,-171.936 1080,-168 1142.4,-159.865 1319.71,-163.94 1358,-114 1368.28,-100.598 1367.56,-89.9239 1358,-76 1346.95,-59.9025 1302.72,-44.1466 1265.46,-33.2945"/>
<ellipse fill="none" stroke="#dbb944" cx="984.992" cy="-180.772" rx="4.00001" ry="4.00001"/>
<polygon fill="#dbb944" stroke="#dbb944" points="1265.29,-33.2449 1256.9,-26.178 1260.48,-31.8754 1255.67,-30.5059 1255.67,-30.5059 1255.67,-30.5059 1260.48,-31.8754 1254.44,-34.8338 1265.29,-33.2449 1265.29,-33.2449"/>
</g>
<!-- Article&#45;&gt;Comment -->
<g id="edge48" class="edge"><title>Article&#45;&gt;Comment</title>
<path fill="none" stroke="#eeb4d5" d="M990.348,-181.869C1028.35,-176.83 1081.25,-167.295 1125,-150 1153.22,-138.847 1164.73,-138.224 1183,-114 1197.53,-94.7365 1204.24,-67.9483 1207.34,-47.7271"/>
<ellipse fill="none" stroke="#eeb4d5" cx="985.958" cy="-182.429" rx="4.00001" ry="4.00001"/>
<polygon fill="#eeb4d5" stroke="#eeb4d5" points="1207.38,-47.4564 1213.15,-38.1326 1208.03,-42.4995 1208.69,-37.5427 1208.69,-37.5427 1208.69,-37.5427 1208.03,-42.4995 1204.23,-36.9527 1207.38,-47.4564 1207.38,-47.4564"/>
<text text-anchor="middle" x="1273" y="-91.4" font-family="Times Roman,serif" font-size="14.00">published_comments</text>
</g>
<!-- Article&#45;&gt;Feedback -->
<g id="edge40" class="edge"><title>Article&#45;&gt;Feedback</title>
<path fill="none" stroke="#7e252a" d="M947.359,-160.788C951.529,-150.4 957.806,-139.232 967,-132 995.985,-109.199 1012.2,-122.833 1048,-114 1053.64,-112.609 1059.52,-111.102 1065.37,-109.567"/>
<ellipse fill="none" stroke="#7e252a" cx="945.929" cy="-164.74" rx="4.00001" ry="4.00001"/>
<polygon fill="#7e252a" stroke="#7e252a" points="1065.47,-109.539 1076.29,-111.32 1070.31,-108.255 1075.14,-106.971 1075.14,-106.971 1075.14,-106.971 1070.31,-108.255 1073.98,-102.622 1065.47,-109.539 1065.47,-109.539"/>
</g>
<!-- Article&#45;&gt;Feedback -->
<g id="edge52" class="edge"><title>Article&#45;&gt;Feedback</title>
<path fill="none" stroke="#1d9ed7" d="M955.974,-162.443C964.095,-151.701 974.824,-139.796 987,-132 988.779,-130.861 1029.47,-119.441 1065.04,-109.587"/>
<ellipse fill="none" stroke="#1d9ed7" cx="953.613" cy="-165.697" rx="4.00002" ry="4.00002"/>
<polygon fill="#1d9ed7" stroke="#1d9ed7" points="1065.26,-109.526 1076.1,-111.196 1070.08,-108.192 1074.9,-106.859 1074.9,-106.859 1074.9,-106.859 1070.08,-108.192 1073.7,-102.522 1065.26,-109.526 1065.26,-109.526"/>
<text text-anchor="middle" x="1054" y="-137.4" font-family="Times Roman,serif" font-size="14.00">published_feedback</text>
</g>
<!-- Tag -->
<g id="node19" class="node"><title>Tag</title>
<ellipse fill="none" stroke="black" cx="583" cy="-95" rx="27.7881" ry="18.3848"/>
<text text-anchor="middle" x="583" y="-91.4" font-family="Times Roman,serif" font-size="14.00">Tag</text>
</g>
<!-- Article&#45;&gt;Tag -->
<g id="edge54" class="edge"><title>Article&#45;&gt;Tag</title>
<path fill="none" stroke="#14d678" d="M890.874,-177.36C814.126,-162.035 669.447,-132.013 620,-114 617.905,-113.237 615.777,-112.381 613.655,-111.467"/>
<polygon fill="#14d678" stroke="#14d678" points="890.978,-177.38 899.908,-183.746 895.882,-178.356 900.786,-179.332 900.786,-179.332 900.786,-179.332 895.882,-178.356 901.665,-174.919 890.978,-177.38 890.978,-177.38"/>
<polygon fill="#14d678" stroke="#14d678" points="613.562,-111.424 606.413,-103.109 609.034,-109.304 604.505,-107.185 604.505,-107.185 604.505,-107.185 609.034,-109.304 602.598,-111.26 613.562,-111.424 613.562,-111.424"/>
</g>
<!-- Trigger -->
<g id="node22" class="node"><title>Trigger</title>
<ellipse fill="none" stroke="black" cx="1455" cy="-95" rx="44.7575" ry="18.3848"/>
<text text-anchor="middle" x="1455" y="-91.4" font-family="Times Roman,serif" font-size="14.00">Trigger</text>
</g>
<!-- Article&#45;&gt;Trigger -->
<g id="edge34" class="edge"><title>Article&#45;&gt;Trigger</title>
<path fill="none" stroke="#d223c5" d="M988.745,-179.515C1015.61,-175.609 1049.59,-171.027 1080,-168 1142.71,-161.759 1303.13,-169.669 1363,-150 1377.05,-145.382 1378.37,-139.704 1391,-132 1400.22,-126.378 1410.29,-120.456 1419.65,-115.037"/>
<ellipse fill="none" stroke="#d223c5" cx="984.606" cy="-180.122" rx="4.00001" ry="4.00001"/>
<polygon fill="#d223c5" stroke="#d223c5" points="1419.7,-115.01 1430.61,-113.924 1424.03,-112.517 1428.37,-110.023 1428.37,-110.023 1428.37,-110.023 1424.03,-112.517 1426.12,-106.123 1419.7,-115.01 1419.7,-115.01"/>
</g>
<!-- Ping -->
<g id="node25" class="node"><title>Ping</title>
<ellipse fill="none" stroke="black" cx="791" cy="-95" rx="32.0265" ry="18.3848"/>
<text text-anchor="middle" x="791" y="-91.4" font-family="Times Roman,serif" font-size="14.00">Ping</text>
</g>
<!-- Article&#45;&gt;Ping -->
<g id="edge36" class="edge"><title>Article&#45;&gt;Ping</title>
<path fill="none" stroke="#e71405" d="M902.373,-170.085C890.196,-164.179 876.797,-157.212 865,-150 848.601,-139.974 831.305,-127.253 817.562,-116.571"/>
<ellipse fill="none" stroke="#e71405" cx="906.162" cy="-171.894" rx="4.00002" ry="4.00002"/>
<polygon fill="#e71405" stroke="#e71405" points="817.36,-116.412 812.287,-106.69 813.432,-113.319 809.503,-110.225 809.503,-110.225 809.503,-110.225 813.432,-113.319 806.719,-113.761 817.36,-116.412 817.36,-116.412"/>
</g>
<!-- Article&#45;&gt;Trackback -->
<g id="edge38" class="edge"><title>Article&#45;&gt;Trackback</title>
<path fill="none" stroke="#6ed886" d="M938.672,-160.251C939.532,-150.334 942.248,-139.652 949,-132 967.703,-110.805 990.411,-134.378 1010,-114 1026.87,-96.455 1032.38,-68.8511 1033.96,-47.9103"/>
<ellipse fill="none" stroke="#6ed886" cx="938.504" cy="-164.321" rx="4" ry="4"/>
<polygon fill="#6ed886" stroke="#6ed886" points="1033.97,-47.6433 1038.96,-37.8777 1034.22,-42.6494 1034.46,-37.6555 1034.46,-37.6555 1034.46,-37.6555 1034.22,-42.6494 1029.97,-37.4332 1033.97,-47.6433 1033.97,-47.6433"/>
</g>
<!-- Article&#45;&gt;Trackback -->
<g id="edge50" class="edge"><title>Article&#45;&gt;Trackback</title>
<path fill="none" stroke="#4ffb21" d="M907.816,-166.977C876.218,-144.766 835.872,-107.857 859,-76 872.787,-57.0091 928.369,-41.0453 973.243,-30.8873"/>
<ellipse fill="none" stroke="#4ffb21" cx="911.503" cy="-169.498" rx="4.00002" ry="4.00002"/>
<polygon fill="#4ffb21" stroke="#4ffb21" points="973.454,-30.8409 984.189,-33.0774 978.336,-29.7621 983.218,-28.6834 983.218,-28.6834 983.218,-28.6834 978.336,-29.7621 982.247,-24.2894 973.454,-30.8409 973.454,-30.8409"/>
<text text-anchor="middle" x="932.5" y="-91.4" font-family="Times Roman,serif" font-size="14.00">published_trackbacks</text>
</g>
<!-- Page -->
<g id="node16" class="node"><title>Page</title>
<ellipse fill="none" stroke="black" cx="1381" cy="-263" rx="34.8574" ry="18.3848"/>
<text text-anchor="middle" x="1381" y="-259.4" font-family="Times Roman,serif" font-size="14.00">Page</text>
</g>
<!-- ConfigManager -->
<g id="node17" class="node"><title>ConfigManager</title>
<polygon fill="none" stroke="black" stroke-dasharray="1,5" points="2367,-477 2247,-477 2247,-441 2367,-441 2367,-477"/>
<text text-anchor="middle" x="2307" y="-455.4" font-family="Times Roman,serif" font-size="14.00">ConfigManager</text>
</g>
<!-- Content -->
<g id="node18" class="node"><title>Content</title>
<ellipse fill="none" stroke="black" cx="1272" cy="-355" rx="51.1176" ry="18.3848"/>
<text text-anchor="middle" x="1272" y="-351.4" font-family="Times Roman,serif" font-size="14.00">Content</text>
</g>
<!-- Content&#45;&gt;Notification -->
<g id="edge60" class="edge"><title>Content&#45;&gt;Notification</title>
<path fill="none" stroke="#71e3e1" d="M1293.56,-330.487C1299.33,-320.954 1302.8,-309.952 1298,-300 1277.74,-257.977 1233.4,-226.761 1199.63,-207.91"/>
<ellipse fill="none" stroke="#71e3e1" cx="1291.28" cy="-333.827" rx="4.00002" ry="4.00002"/>
<polygon fill="#71e3e1" stroke="#71e3e1" points="1199.2,-207.681 1192.55,-198.965 1194.81,-205.302 1190.41,-202.922 1190.41,-202.922 1190.41,-202.922 1194.81,-205.302 1188.27,-206.88 1199.2,-207.681 1199.2,-207.681"/>
</g>
<!-- Content&#45;&gt;Feedback -->
<g id="edge28" class="edge"><title>Content&#45;&gt;Feedback</title>
<path fill="none" stroke="black" d="M1223,-349.742C1172.54,-343.654 1097.86,-332.566 1073,-318 1055.03,-307.472 1050.09,-301.583 1043,-282 1024.87,-231.913 1041.6,-204.918 1080,-168 1094.35,-154.208 1110.12,-166.662 1121,-150 1127.95,-139.351 1126.87,-124.922 1124.23,-113.515"/>
</g>
<!-- Content&#45;&gt;Article -->
<g id="edge56" class="edge"><title>Content&#45;&gt;Article</title>
<path fill="none" stroke="black" d="M1221.22,-353.218C1154.86,-349.991 1043.18,-341.197 1010,-318 971.115,-290.813 951.965,-235.032 944.269,-205.806"/>
</g>
<!-- Content&#45;&gt;Page -->
<g id="edge58" class="edge"><title>Content&#45;&gt;Page</title>
<path fill="none" stroke="black" d="M1310.34,-342.77C1324.34,-336.92 1339.53,-328.791 1351,-318 1361.78,-307.866 1369.57,-292.977 1374.51,-281.245"/>
</g>
<!-- User -->
<g id="node21" class="node"><title>User</title>
<ellipse fill="none" stroke="black" cx="1086" cy="-263" rx="33.9411" ry="18.3848"/>
<text text-anchor="middle" x="1086" y="-259.4" font-family="Times Roman,serif" font-size="14.00">User</text>
</g>
<!-- Content&#45;&gt;User -->
<g id="edge62" class="edge"><title>Content&#45;&gt;User</title>
<path fill="none" stroke="#231d75" d="M1211.03,-351.29C1162.12,-346.89 1099.07,-337.521 1083,-318 1076.93,-310.626 1076.05,-300.635 1077.24,-291.19"/>
<polygon fill="#231d75" stroke="#231d75" points="1211.26,-351.31 1220.85,-356.639 1216.25,-351.732 1221.23,-352.155 1221.23,-352.155 1221.23,-352.155 1216.25,-351.732 1221.61,-347.671 1211.26,-351.31 1211.26,-351.31"/>
<polygon fill="#231d75" stroke="#231d75" points="1077.25,-291.117 1083.61,-282.178 1078.22,-286.212 1079.19,-281.307 1079.19,-281.307 1079.19,-281.307 1078.22,-286.212 1074.78,-280.435 1077.25,-291.117 1077.25,-291.117"/>
<text text-anchor="middle" x="1125" y="-305.4" font-family="Times Roman,serif" font-size="14.00">notify_users</text>
</g>
<!-- Content&#45;&gt;Trigger -->
<g id="edge68" class="edge"><title>Content&#45;&gt;Trigger</title>
<path fill="none" stroke="#e4e3d3" d="M1301.28,-333.024C1306.02,-328.463 1310.51,-323.39 1314,-318 1332.73,-289.097 1320.93,-274.46 1337,-244 1362.48,-195.718 1404.31,-147.61 1430.72,-119.617"/>
<ellipse fill="none" stroke="#e4e3d3" cx="1298.17" cy="-335.831" rx="4.00002" ry="4.00002"/>
<polygon fill="#e4e3d3" stroke="#e4e3d3" points="1430.82,-119.505 1440.98,-115.379 1434.28,-115.888 1437.73,-112.272 1437.73,-112.272 1437.73,-112.272 1434.28,-115.888 1434.47,-109.164 1430.82,-119.505 1430.82,-119.505"/>
</g>
<!-- Redirect -->
<g id="node29" class="node"><title>Redirect</title>
<ellipse fill="none" stroke="black" cx="1561" cy="-263" rx="51.1176" ry="18.3848"/>
<text text-anchor="middle" x="1561" y="-259.4" font-family="Times Roman,serif" font-size="14.00">Redirect</text>
</g>
<!-- Content&#45;&gt;Redirect -->
<g id="edge66" class="edge"><title>Content&#45;&gt;Redirect</title>
<path fill="none" stroke="#168947" d="M1327.03,-344.254C1380.73,-333.735 1454.85,-319.126 1458,-318 1482.06,-309.397 1507.39,-295.933 1526.92,-284.481"/>
<polygon fill="#168947" stroke="#168947" points="1326.73,-344.311 1316.06,-341.816 1321.83,-345.271 1316.92,-346.232 1316.92,-346.232 1316.92,-346.232 1321.83,-345.271 1317.78,-350.648 1326.73,-344.311 1326.73,-344.311"/>
<polygon fill="#168947" stroke="#168947" points="1527.14,-284.346 1538.04,-283.081 1531.44,-281.782 1535.73,-279.218 1535.73,-279.218 1535.73,-279.218 1531.44,-281.782 1533.42,-275.355 1527.14,-284.346 1527.14,-284.346"/>
</g>
<!-- Redirection -->
<g id="node31" class="node"><title>Redirection</title>
<ellipse fill="none" stroke="black" cx="1482" cy="-187" rx="65.9683" ry="18.3848"/>
<text text-anchor="middle" x="1482" y="-183.4" font-family="Times Roman,serif" font-size="14.00">Redirection</text>
</g>
<!-- Content&#45;&gt;Redirection -->
<g id="edge64" class="edge"><title>Content&#45;&gt;Redirection</title>
<path fill="none" stroke="#e845cd" d="M1319.07,-340.229C1336.13,-334.193 1355.3,-326.598 1372,-318 1397.32,-304.964 1405.44,-302.694 1425,-282 1443.93,-261.97 1459.53,-234.596 1469.6,-214.376"/>
<ellipse fill="none" stroke="#e845cd" cx="1315.18" cy="-341.58" rx="4.00001" ry="4.00001"/>
<polygon fill="#e845cd" stroke="#e845cd" points="1469.6,-214.369 1478,-207.324 1471.77,-209.867 1473.95,-205.366 1473.95,-205.366 1473.95,-205.366 1471.77,-209.867 1469.9,-203.407 1469.6,-214.369 1469.6,-214.369"/>
</g>
<!-- PageCache -->
<g id="node20" class="node"><title>PageCache</title>
<polygon fill="none" stroke="black" points="2426,-373 2334,-373 2334,-337 2426,-337 2426,-373"/>
<text text-anchor="middle" x="2380" y="-351.4" font-family="Times Roman,serif" font-size="14.00">PageCache</text>
</g>
<!-- User&#45;&gt;Notification -->
<g id="edge76" class="edge"><title>User&#45;&gt;Notification</title>
<path fill="none" stroke="#897094" d="M1107.04,-240.156C1115.02,-231.489 1124.16,-221.565 1132.37,-212.657"/>
<ellipse fill="none" stroke="#897094" cx="1104.25" cy="-243.191" rx="4.00002" ry="4.00002"/>
<polygon fill="#897094" stroke="#897094" points="1132.51,-212.502 1142.6,-208.195 1135.9,-208.824 1139.29,-205.147 1139.29,-205.147 1139.29,-205.147 1135.9,-208.824 1135.98,-202.098 1132.51,-212.502 1132.51,-212.502"/>
</g>
<!-- User&#45;&gt;Article -->
<g id="edge80" class="edge"><title>User&#45;&gt;Article</title>
<path fill="none" stroke="#a8be36" d="M1053.9,-246.292C1031.11,-234.426 1000.46,-218.471 976.694,-206.101"/>
<ellipse fill="none" stroke="#a8be36" cx="1057.69" cy="-248.261" rx="4.00002" ry="4.00002"/>
<polygon fill="#a8be36" stroke="#a8be36" points="976.499,-206 969.707,-197.391 972.064,-203.691 967.629,-201.382 967.629,-201.382 967.629,-201.382 972.064,-203.691 965.551,-205.374 976.499,-206 976.499,-206"/>
</g>
<!-- User&#45;&gt;Content -->
<g id="edge78" class="edge"><title>User&#45;&gt;Content</title>
<path fill="none" stroke="#7e32f5" d="M1123.23,-277.808C1137.32,-283.975 1153.26,-291.647 1167,-300 1178.09,-306.743 1178.89,-311.282 1190,-318 1201.82,-325.15 1215.26,-331.776 1227.79,-337.387"/>
<polygon fill="#7e32f5" stroke="#7e32f5" points="1123.01,-277.717 1115.59,-269.651 1118.42,-275.754 1113.82,-273.79 1113.82,-273.79 1113.82,-273.79 1118.42,-275.754 1112.05,-277.928 1123.01,-277.717 1123.01,-277.717"/>
<polygon fill="#7e32f5" stroke="#7e32f5" points="1227.99,-337.473 1235.36,-345.596 1232.57,-339.472 1237.16,-341.471 1237.16,-341.471 1237.16,-341.471 1232.57,-339.472 1238.96,-337.347 1227.99,-337.473 1227.99,-337.473"/>
<text text-anchor="middle" x="1244" y="-305.4" font-family="Times Roman,serif" font-size="14.00">notify_contents</text>
</g>
<!-- Blog -->
<g id="node23" class="node"><title>Blog</title>
<ellipse fill="none" stroke="black" cx="1710" cy="-355" rx="33.234" ry="18.3848"/>
<text text-anchor="middle" x="1710" y="-351.4" font-family="Times Roman,serif" font-size="14.00">Blog</text>
</g>
<!-- Theme -->
<g id="node24" class="node"><title>Theme</title>
<polygon fill="none" stroke="black" points="2508,-373 2444,-373 2444,-337 2508,-337 2508,-373"/>
<text text-anchor="middle" x="2476" y="-351.4" font-family="Times Roman,serif" font-size="14.00">Theme</text>
</g>
<!-- Feedback::States -->
<g id="node26" class="node"><title>Feedback::States</title>
<polygon fill="none" stroke="black" stroke-dasharray="1,5" points="2621,-477 2489,-477 2489,-441 2621,-441 2621,-477"/>
<text text-anchor="middle" x="2555" y="-455.4" font-family="Times Roman,serif" font-size="14.00">Feedback::States</text>
</g>
<!-- BlogSweeper -->
<g id="node27" class="node"><title>BlogSweeper</title>
<polygon fill="none" stroke="black" points="2877,-373 2771,-373 2771,-337 2877,-337 2877,-373"/>
<text text-anchor="middle" x="2824" y="-351.4" font-family="Times Roman,serif" font-size="14.00">BlogSweeper</text>
</g>
<!-- Redirect&#45;&gt;Redirection -->
<g id="edge96" class="edge"><title>Redirect&#45;&gt;Redirection</title>
<path fill="none" stroke="#72949a" d="M1536.79,-239.708C1527.66,-230.929 1517.25,-220.913 1507.97,-211.986"/>
<ellipse fill="none" stroke="#72949a" cx="1539.79" cy="-242.6" rx="4.00002" ry="4.00002"/>
<polygon fill="#72949a" stroke="#72949a" points="1507.7,-211.728 1503.62,-201.552 1504.1,-208.261 1500.5,-204.795 1500.5,-204.795 1500.5,-204.795 1504.1,-208.261 1497.38,-208.038 1507.7,-211.728 1507.7,-211.728"/>
</g>
<!-- EmailNotifier -->
<g id="node30" class="node"><title>EmailNotifier</title>
<polygon fill="none" stroke="black" points="462,-373 358,-373 358,-337 462,-337 462,-373"/>
<text text-anchor="middle" x="410" y="-351.4" font-family="Times Roman,serif" font-size="14.00">EmailNotifier</text>
</g>
<!-- PostType -->
<g id="node32" class="node"><title>PostType</title>
<ellipse fill="none" stroke="black" cx="1854" cy="-355" rx="55.1543" ry="18.3848"/>
<text text-anchor="middle" x="1854" y="-351.4" font-family="Times Roman,serif" font-size="14.00">PostType</text>
</g>
<!-- ActiveRecord::Observer -->
<g id="node33" class="node"><title>ActiveRecord::Observer</title>
<ellipse fill="none" stroke="black" cx="351" cy="-459" rx="125.158" ry="18.3848"/>
<text text-anchor="middle" x="351" y="-455.4" font-family="Times Roman,serif" font-size="14.00">ActiveRecord::Observer</text>
</g>
<!-- ActiveRecord::Observer&#45;&gt;WebNotifier -->
<g id="edge2" class="edge"><title>ActiveRecord::Observer&#45;&gt;WebNotifier</title>
<path fill="none" stroke="black" d="M340.273,-440.407C329.285,-421.36 312.313,-391.943 301.433,-373.084"/>
</g>
<!-- ActiveRecord::Observer&#45;&gt;EmailNotifier -->
<g id="edge100" class="edge"><title>ActiveRecord::Observer&#45;&gt;EmailNotifier</title>
<path fill="none" stroke="black" d="M361.548,-440.407C372.353,-421.36 389.042,-391.943 399.741,-373.084"/>
</g>
<!-- ActiveRecord::Base -->
<g id="node38" class="node"><title>ActiveRecord::Base</title>
<ellipse fill="none" stroke="black" cx="1272" cy="-459" rx="103.945" ry="18.3848"/>
<text text-anchor="middle" x="1272" y="-455.4" font-family="Times Roman,serif" font-size="14.00">ActiveRecord::Base</text>
</g>
<!-- ActiveRecord::Base&#45;&gt;Category -->
<g id="edge10" class="edge"><title>ActiveRecord::Base&#45;&gt;Category</title>
<path fill="none" stroke="black" d="M1178.68,-450.658C1078.14,-440.781 913.773,-422.045 774,-394 739.182,-387.014 700.348,-376.227 671.946,-367.767"/>
</g>
<!-- ActiveRecord::Base&#45;&gt;Sidebar -->
<g id="edge12" class="edge"><title>ActiveRecord::Base&#45;&gt;Sidebar</title>
<path fill="none" stroke="black" d="M1189.02,-447.841C1130.45,-438.149 1050.98,-421.283 985,-394 971.016,-388.217 956.636,-379.384 945.249,-371.585"/>
</g>
<!-- ActiveRecord::Base&#45;&gt;Notification -->
<g id="edge16" class="edge"><title>ActiveRecord::Base&#45;&gt;Notification</title>
<path fill="none" stroke="black" d="M1253.52,-440.411C1229.65,-415.127 1188.94,-367.364 1170,-318 1155.5,-280.202 1154.36,-232.048 1155.03,-205.927"/>
</g>
<!-- ActiveRecord::Base&#45;&gt;Resource -->
<g id="edge18" class="edge"><title>ActiveRecord::Base&#45;&gt;Resource</title>
<path fill="none" stroke="black" d="M1178.76,-450.668C1071.82,-440.087 903.815,-420.032 846,-394 731.763,-342.563 696.244,-170.5 687.471,-113.51"/>
</g>
<!-- ActiveRecord::Base&#45;&gt;TextFilter -->
<g id="edge20" class="edge"><title>ActiveRecord::Base&#45;&gt;TextFilter</title>
<path fill="none" stroke="black" d="M1300.02,-441.122C1330.7,-421.55 1379.47,-390.432 1409.22,-371.446"/>
</g>
<!-- ActiveRecord::Base&#45;&gt;Categorization -->
<g id="edge22" class="edge"><title>ActiveRecord::Base&#45;&gt;Categorization</title>
<path fill="none" stroke="black" d="M1169.37,-455.829C957.206,-447.901 490,-422.752 490,-355 490,-355 490,-355 490,-187 490,-159.972 476.084,-131.493 465.32,-113.508"/>
</g>
<!-- ActiveRecord::Base&#45;&gt;Profile -->
<g id="edge26" class="edge"><title>ActiveRecord::Base&#45;&gt;Profile</title>
<path fill="none" stroke="black" d="M1356.89,-448.273C1449.58,-434.968 1590.18,-409.605 1630,-374 1656.95,-349.901 1666.23,-306.473 1669.39,-281.684"/>
</g>
<!-- ActiveRecord::Base&#45;&gt;Right -->
<g id="edge32" class="edge"><title>ActiveRecord::Base&#45;&gt;Right</title>
<path fill="none" stroke="black" d="M1353.73,-447.482C1406.72,-437.914 1476.19,-421.333 1533,-394 1545.05,-388.201 1557.01,-379.269 1566.32,-371.416"/>
</g>
<!-- ActiveRecord::Base&#45;&gt;Content -->
<g id="edge70" class="edge"><title>ActiveRecord::Base&#45;&gt;Content</title>
<path fill="none" stroke="black" d="M1272,-440.407C1272,-421.594 1272,-392.664 1272,-373.783"/>
</g>
<!-- ActiveRecord::Base&#45;&gt;Tag -->
<g id="edge72" class="edge"><title>ActiveRecord::Base&#45;&gt;Tag</title>
<path fill="none" stroke="black" d="M1171.59,-454.168C986.231,-444.214 605.497,-418.538 566,-374 531.87,-335.515 565.926,-169.435 578.641,-113.482"/>
</g>
<!-- ActiveRecord::Base&#45;&gt;User -->
<g id="edge82" class="edge"><title>ActiveRecord::Base&#45;&gt;User</title>
<path fill="none" stroke="black" d="M1228.43,-442.056C1202.02,-430.648 1168.44,-414.045 1142,-394 1105.64,-366.439 1089.44,-360.558 1073,-318 1068.37,-306.01 1071.88,-291.889 1076.42,-280.957"/>
</g>
<!-- ActiveRecord::Base&#45;&gt;Trigger -->
<g id="edge84" class="edge"><title>ActiveRecord::Base&#45;&gt;Trigger</title>
<path fill="none" stroke="black" d="M1361.21,-449.423C1504.74,-432.794 1771,-396.371 1771,-355 1771,-355 1771,-355 1771,-187 1771,-131.075 1586.24,-106.885 1499.27,-98.596"/>
</g>
<!-- ActiveRecord::Base&#45;&gt;Blog -->
<g id="edge86" class="edge"><title>ActiveRecord::Base&#45;&gt;Blog</title>
<path fill="none" stroke="black" d="M1361.97,-449.554C1460.27,-438.268 1610.74,-417.885 1663,-394 1674.77,-388.623 1685.99,-379.513 1694.52,-371.45"/>
</g>
<!-- ActiveRecord::Base&#45;&gt;Ping -->
<g id="edge90" class="edge"><title>ActiveRecord::Base&#45;&gt;Ping</title>
<path fill="none" stroke="black" d="M1169.68,-455.44C1038,-448.015 826,-425.166 826,-355 826,-355 826,-355 826,-187 826,-159.658 812.328,-130.556 802.074,-112.574"/>
</g>
<!-- ActiveRecord::Base&#45;&gt;Redirect -->
<g id="edge98" class="edge"><title>ActiveRecord::Base&#45;&gt;Redirect</title>
<path fill="none" stroke="black" d="M1344.81,-445.699C1393.31,-433.758 1455.97,-412.045 1500,-374 1529.12,-348.842 1546.93,-306.209 1555.29,-281.749"/>
</g>
<!-- ActiveRecord::Base&#45;&gt;Redirection -->
<g id="edge102" class="edge"><title>ActiveRecord::Base&#45;&gt;Redirection</title>
<path fill="none" stroke="black" d="M1283.39,-440.408C1299.94,-414.515 1332.79,-367.26 1370,-336 1382.79,-325.254 1388.82,-326.832 1403,-318 1426.55,-303.333 1437.85,-304.559 1454,-282 1470.52,-258.932 1477.37,-226.135 1480.16,-205.734"/>
</g>
<!-- ActiveRecord::Base&#45;&gt;PostType -->
<g id="edge104" class="edge"><title>ActiveRecord::Base&#45;&gt;PostType</title>
<path fill="none" stroke="black" d="M1366.86,-451.396C1493.22,-440.509 1709.59,-419.011 1785,-394 1800.8,-388.759 1817.08,-379.759 1829.86,-371.725"/>
</g>
<!-- ActionMailer::Base -->
<g id="node41" class="node"><title>ActionMailer::Base</title>
<ellipse fill="none" stroke="black" cx="1995" cy="-459" rx="101.823" ry="18.3848"/>
<text text-anchor="middle" x="1995" y="-455.4" font-family="Times Roman,serif" font-size="14.00">ActionMailer::Base</text>
</g>
<!-- ActionMailer::Base&#45;&gt;NotificationMailer -->
<g id="edge14" class="edge"><title>ActionMailer::Base&#45;&gt;NotificationMailer</title>
<path fill="none" stroke="black" d="M1995,-440.407C1995,-421.36 1995,-391.943 1995,-373.084"/>
</g>
<!-- Object -->
<g id="node72" class="node"><title>Object</title>
<ellipse fill="none" stroke="black" cx="2428" cy="-459" rx="43.1335" ry="18.3848"/>
<text text-anchor="middle" x="2428" y="-455.4" font-family="Times Roman,serif" font-size="14.00">Object</text>
</g>
<!-- Object&#45;&gt;PageCache -->
<g id="edge74" class="edge"><title>Object&#45;&gt;PageCache</title>
<path fill="none" stroke="black" d="M2419.42,-440.407C2410.63,-421.36 2397.05,-391.943 2388.35,-373.084"/>
</g>
<!-- Object&#45;&gt;Theme -->
<g id="edge88" class="edge"><title>Object&#45;&gt;Theme</title>
<path fill="none" stroke="black" d="M2436.58,-440.407C2445.37,-421.36 2458.95,-391.943 2467.65,-373.084"/>
</g>
<!-- ActionController::Caching::Sweeper -->
<g id="node82" class="node"><title>ActionController::Caching::Sweeper</title>
<ellipse fill="none" stroke="black" cx="2824" cy="-459" rx="184.763" ry="18.3848"/>
<text text-anchor="middle" x="2824" y="-455.4" font-family="Times Roman,serif" font-size="14.00">ActionController::Caching::Sweeper</text>
</g>
<!-- ActionController::Caching::Sweeper&#45;&gt;BlogSweeper -->
<g id="edge92" class="edge"><title>ActionController::Caching::Sweeper&#45;&gt;BlogSweeper</title>
<path fill="none" stroke="black" d="M2824,-440.407C2824,-421.36 2824,-391.943 2824,-373.084"/>
</g>
</g>
</svg>
